<mxfile host="app.diagrams.net" agent="Mozilla/5.0 (Windows NT 10.0; Win64; x64) AppleWebKit/537.36 (KHTML, like Gecko) Chrome/135.0.0.0 Safari/537.36 Edg/135.0.0.0" version="26.2.14">
  <diagram name="Page-1" id="ssCT_4MGcP9rSuZ64uZm">
    <mxGraphModel dx="2331" dy="654" grid="0" gridSize="10" guides="1" tooltips="1" connect="1" arrows="1" fold="1" page="1" pageScale="1" pageWidth="850" pageHeight="1100" math="0" shadow="0">
      <root>
        <mxCell id="0" />
        <mxCell id="1" parent="0" />
        <mxCell id="Yjz4e-nMKHxjPhRT3g_7-1" value="&lt;font style=&quot;font-size: 16px;&quot;&gt;IDLE&lt;/font&gt;" style="ellipse;whiteSpace=wrap;html=1;aspect=fixed;" vertex="1" parent="1">
          <mxGeometry x="159" y="446" width="111" height="111" as="geometry" />
        </mxCell>
        <mxCell id="Yjz4e-nMKHxjPhRT3g_7-2" value="&lt;font style=&quot;font-size: 16px;&quot;&gt;START&lt;/font&gt;" style="ellipse;whiteSpace=wrap;html=1;aspect=fixed;" vertex="1" parent="1">
          <mxGeometry x="634" y="446" width="111" height="111" as="geometry" />
        </mxCell>
        <mxCell id="Yjz4e-nMKHxjPhRT3g_7-21" style="edgeStyle=orthogonalEdgeStyle;rounded=0;orthogonalLoop=1;jettySize=auto;html=1;entryX=0.5;entryY=1;entryDx=0;entryDy=0;" edge="1" parent="1" source="Yjz4e-nMKHxjPhRT3g_7-3" target="Yjz4e-nMKHxjPhRT3g_7-1">
          <mxGeometry relative="1" as="geometry" />
        </mxCell>
        <mxCell id="Yjz4e-nMKHxjPhRT3g_7-3" value="&lt;font style=&quot;font-size: 16px;&quot;&gt;STOP&lt;/font&gt;" style="ellipse;whiteSpace=wrap;html=1;aspect=fixed;" vertex="1" parent="1">
          <mxGeometry x="159" y="657" width="111" height="111" as="geometry" />
        </mxCell>
        <mxCell id="Yjz4e-nMKHxjPhRT3g_7-4" value="&lt;font style=&quot;font-size: 16px;&quot;&gt;DATA&lt;/font&gt;" style="ellipse;whiteSpace=wrap;html=1;aspect=fixed;" vertex="1" parent="1">
          <mxGeometry x="634" y="657" width="111" height="111" as="geometry" />
        </mxCell>
        <mxCell id="Yjz4e-nMKHxjPhRT3g_7-6" value="" style="endArrow=classic;html=1;rounded=0;entryX=0;entryY=0.5;entryDx=0;entryDy=0;exitX=1;exitY=0.5;exitDx=0;exitDy=0;" edge="1" parent="1" source="Yjz4e-nMKHxjPhRT3g_7-1" target="Yjz4e-nMKHxjPhRT3g_7-2">
          <mxGeometry width="50" height="50" relative="1" as="geometry">
            <mxPoint x="307" y="501" as="sourcePoint" />
            <mxPoint x="397" y="501" as="targetPoint" />
          </mxGeometry>
        </mxCell>
        <mxCell id="Yjz4e-nMKHxjPhRT3g_7-7" value="&lt;font style=&quot;font-size: 14px;&quot;&gt;tx_start = 1&lt;/font&gt;" style="text;strokeColor=none;align=center;fillColor=none;html=1;verticalAlign=middle;whiteSpace=wrap;rounded=0;" vertex="1" parent="1">
          <mxGeometry x="354" y="467" width="74" height="30" as="geometry" />
        </mxCell>
        <mxCell id="Yjz4e-nMKHxjPhRT3g_7-8" value="" style="curved=1;endArrow=classic;html=1;rounded=0;exitX=1;exitY=0;exitDx=0;exitDy=0;entryX=0.441;entryY=0;entryDx=0;entryDy=0;entryPerimeter=0;" edge="1" parent="1" source="Yjz4e-nMKHxjPhRT3g_7-1" target="Yjz4e-nMKHxjPhRT3g_7-1">
          <mxGeometry width="50" height="50" relative="1" as="geometry">
            <mxPoint x="231.05" y="449" as="sourcePoint" />
            <mxPoint x="190" y="399" as="targetPoint" />
            <Array as="points">
              <mxPoint x="281.05" y="449" />
              <mxPoint x="271" y="399" />
              <mxPoint x="205" y="393" />
            </Array>
          </mxGeometry>
        </mxCell>
        <mxCell id="Yjz4e-nMKHxjPhRT3g_7-9" value="&lt;font style=&quot;font-size: 14px;&quot;&gt;tx_start = 0&lt;/font&gt;" style="text;strokeColor=none;align=center;fillColor=none;html=1;verticalAlign=middle;whiteSpace=wrap;rounded=0;" vertex="1" parent="1">
          <mxGeometry x="199" y="369" width="74" height="30" as="geometry" />
        </mxCell>
        <mxCell id="Yjz4e-nMKHxjPhRT3g_7-10" value="&lt;div style=&quot;background-color: rgb(255, 255, 255); font-family: Consolas, &amp;quot;Courier New&amp;quot;, monospace; font-size: 14px; line-height: 19px; white-space: pre;&quot;&gt;tx_clk_count = CLKS_PER_BIT - &lt;span style=&quot;color: rgb(9, 134, 88);&quot;&gt;1&lt;/span&gt;&lt;/div&gt;" style="text;strokeColor=none;align=center;fillColor=none;html=1;verticalAlign=middle;whiteSpace=wrap;rounded=0;" vertex="1" parent="1">
          <mxGeometry x="726" y="592" width="258" height="30" as="geometry" />
        </mxCell>
        <mxCell id="Yjz4e-nMKHxjPhRT3g_7-11" value="" style="endArrow=classic;html=1;rounded=0;entryX=0.5;entryY=0;entryDx=0;entryDy=0;exitX=0.5;exitY=1;exitDx=0;exitDy=0;" edge="1" parent="1" source="Yjz4e-nMKHxjPhRT3g_7-2" target="Yjz4e-nMKHxjPhRT3g_7-4">
          <mxGeometry width="50" height="50" relative="1" as="geometry">
            <mxPoint x="552" y="555" as="sourcePoint" />
            <mxPoint x="552" y="611" as="targetPoint" />
          </mxGeometry>
        </mxCell>
        <mxCell id="Yjz4e-nMKHxjPhRT3g_7-14" value="" style="curved=1;endArrow=classic;html=1;rounded=0;exitX=1;exitY=0;exitDx=0;exitDy=0;entryX=0.428;entryY=0.004;entryDx=0;entryDy=0;entryPerimeter=0;" edge="1" parent="1" target="Yjz4e-nMKHxjPhRT3g_7-2">
          <mxGeometry width="50" height="50" relative="1" as="geometry">
            <mxPoint x="727" y="460" as="sourcePoint" />
            <mxPoint x="681" y="444" as="targetPoint" />
            <Array as="points">
              <mxPoint x="757.05" y="444" />
              <mxPoint x="747" y="394" />
              <mxPoint x="681" y="388" />
            </Array>
          </mxGeometry>
        </mxCell>
        <mxCell id="Yjz4e-nMKHxjPhRT3g_7-15" value="&lt;div style=&quot;background-color: rgb(255, 255, 255); font-family: Consolas, &amp;quot;Courier New&amp;quot;, monospace; font-size: 14px; line-height: 19px; white-space: pre;&quot;&gt;tx_clk_count &amp;lt; CLKS_PER_BIT - &lt;span style=&quot;color: rgb(9, 134, 88);&quot;&gt;1&lt;/span&gt;&lt;/div&gt;" style="text;strokeColor=none;align=center;fillColor=none;html=1;verticalAlign=middle;whiteSpace=wrap;rounded=0;" vertex="1" parent="1">
          <mxGeometry x="588" y="366" width="258" height="30" as="geometry" />
        </mxCell>
        <mxCell id="Yjz4e-nMKHxjPhRT3g_7-17" value="" style="endArrow=classic;html=1;rounded=0;exitX=0;exitY=0.5;exitDx=0;exitDy=0;" edge="1" parent="1" source="Yjz4e-nMKHxjPhRT3g_7-4">
          <mxGeometry width="50" height="50" relative="1" as="geometry">
            <mxPoint x="500" y="716.1600000000001" as="sourcePoint" />
            <mxPoint x="271" y="712" as="targetPoint" />
          </mxGeometry>
        </mxCell>
        <mxCell id="Yjz4e-nMKHxjPhRT3g_7-18" value="&lt;div style=&quot;background-color: rgb(255, 255, 255); font-family: Consolas, &amp;quot;Courier New&amp;quot;, monospace; line-height: 19px; white-space: pre;&quot;&gt;&lt;span style=&quot;font-size: 14px;&quot;&gt;(tx_clk_count =&lt;/span&gt;&lt;span style=&quot;font-size: 14px;&quot;&gt; CLKS_PER_BIT - &lt;/span&gt;&lt;span style=&quot;font-size: 14px; color: rgb(9, 134, 88);&quot;&gt;1) &amp;amp;&amp;amp; (&lt;/span&gt;&lt;span style=&quot;font-size: 14px; color: light-dark(rgb(0, 0, 0), rgb(255, 255, 255));&quot;&gt;tx_bit_index = 7)&lt;/span&gt;&lt;/div&gt;" style="text;strokeColor=none;align=center;fillColor=none;html=1;verticalAlign=middle;whiteSpace=wrap;rounded=0;" vertex="1" parent="1">
          <mxGeometry x="328" y="760" width="258" height="30" as="geometry" />
        </mxCell>
        <mxCell id="Yjz4e-nMKHxjPhRT3g_7-22" value="&lt;div style=&quot;background-color: rgb(255, 255, 255); font-family: Consolas, &amp;quot;Courier New&amp;quot;, monospace; font-size: 14px; line-height: 19px; white-space: pre;&quot;&gt;tx_clk_count = CLKS_PER_BIT - &lt;span style=&quot;color: rgb(9, 134, 88);&quot;&gt;1&lt;/span&gt;&lt;/div&gt;" style="text;strokeColor=none;align=center;fillColor=none;html=1;verticalAlign=middle;whiteSpace=wrap;rounded=0;" vertex="1" parent="1">
          <mxGeometry x="-15" y="587" width="207" height="30" as="geometry" />
        </mxCell>
        <mxCell id="Yjz4e-nMKHxjPhRT3g_7-24" value="" style="curved=1;endArrow=classic;html=1;rounded=0;" edge="1" parent="1" source="Yjz4e-nMKHxjPhRT3g_7-3">
          <mxGeometry width="50" height="50" relative="1" as="geometry">
            <mxPoint x="109" y="768" as="sourcePoint" />
            <mxPoint x="159" y="718" as="targetPoint" />
            <Array as="points">
              <mxPoint x="182" y="786" />
              <mxPoint x="131" y="817" />
              <mxPoint x="109" y="718" />
            </Array>
          </mxGeometry>
        </mxCell>
        <mxCell id="Yjz4e-nMKHxjPhRT3g_7-25" value="&lt;div style=&quot;background-color: rgb(255, 255, 255); font-family: Consolas, &amp;quot;Courier New&amp;quot;, monospace; font-size: 14px; line-height: 19px; white-space: pre;&quot;&gt;tx_clk_count &amp;lt; CLKS_PER_BIT - &lt;span style=&quot;color: rgb(9, 134, 88);&quot;&gt;1&lt;/span&gt;&lt;/div&gt;" style="text;strokeColor=none;align=center;fillColor=none;html=1;verticalAlign=middle;whiteSpace=wrap;rounded=0;" vertex="1" parent="1">
          <mxGeometry x="-99" y="782" width="207" height="30" as="geometry" />
        </mxCell>
        <mxCell id="Yjz4e-nMKHxjPhRT3g_7-27" value="" style="curved=1;endArrow=classic;html=1;rounded=0;exitX=1;exitY=0.5;exitDx=0;exitDy=0;entryX=0.744;entryY=0.962;entryDx=0;entryDy=0;entryPerimeter=0;" edge="1" parent="1" source="Yjz4e-nMKHxjPhRT3g_7-4" target="Yjz4e-nMKHxjPhRT3g_7-4">
          <mxGeometry width="50" height="50" relative="1" as="geometry">
            <mxPoint x="750" y="827" as="sourcePoint" />
            <mxPoint x="683" y="774" as="targetPoint" />
            <Array as="points">
              <mxPoint x="788" y="701" />
              <mxPoint x="794" y="732" />
              <mxPoint x="791" y="759" />
              <mxPoint x="782" y="784" />
              <mxPoint x="745" y="802" />
              <mxPoint x="730" y="806" />
              <mxPoint x="710" y="799" />
            </Array>
          </mxGeometry>
        </mxCell>
        <mxCell id="Yjz4e-nMKHxjPhRT3g_7-28" value="&lt;div style=&quot;background-color: rgb(255, 255, 255); font-family: Consolas, &amp;quot;Courier New&amp;quot;, monospace; line-height: 19px; white-space: pre;&quot;&gt;&lt;span style=&quot;font-size: 14px;&quot;&gt;(tx_clk_count &amp;lt;&lt;/span&gt;&lt;span style=&quot;font-size: 14px;&quot;&gt; CLKS_PER_BIT - &lt;/span&gt;&lt;span style=&quot;font-size: 14px; color: rgb(9, 134, 88);&quot;&gt;1) || (&lt;/span&gt;&lt;span style=&quot;font-size: 14px; color: light-dark(rgb(0, 0, 0), rgb(255, 255, 255));&quot;&gt;tx_bit_index &amp;lt; 7)&lt;/span&gt;&lt;/div&gt;" style="text;strokeColor=none;align=center;fillColor=none;html=1;verticalAlign=middle;whiteSpace=wrap;rounded=0;" vertex="1" parent="1">
          <mxGeometry x="879" y="760" width="258" height="30" as="geometry" />
        </mxCell>
      </root>
    </mxGraphModel>
  </diagram>
</mxfile>
